<?xml version="1.0" encoding="UTF-8"?>
<svg id="Layer_1" data-name="Layer 1" xmlns="http://www.w3.org/2000/svg" version="1.1" viewBox="0 0 101 122.9">
  <defs>
    <style>
      .cls-1 {
        fill: #fff;
        stroke-width: 0px;
      }
    </style>
  </defs>
  <path class="cls-1" d="M42.9,114.1c8.1,1.1,16.4,0,24-3.2,3.4-1.4,6.6-3.1,9.6-5.2l.6,7.1c-2.5,1.5-5.2,2.9-7.9,4-8.6,3.5-18,4.8-27.3,3.5-9.9-1.4-19.1-6.1-26.1-13.3-7.4-7.6-12.5-17.1-14.7-27.5-2.7-12.7-.6-26,5.7-37.3,6.4-11.4,16.7-20.1,29-24.6,4-1.6,8.3-2.2,12.5-1.7,3.8.4,7.2,2.4,9.4,5.4.1.2.2.4.3.6,2.9,6.7-.6,10.9-4,14.9-2,2.3-3.8,4.5-2.7,6.6.8,1.1,2,1.8,3.3,2,2.6.6,5.4.6,8,.1,2.6-.4,5.3-1,7.9-1.5,1.9-.4,3.7-.8,5.4-1.1l-1.4,6.7c-.9.2-1.8.4-2.6.5-2.6.5-5.2,1.1-8.2,1.6-3.5.6-7.1.6-10.5-.2-3.4-.9-6-2.7-7.3-5.2-3.1-5.9.1-9.7,3.5-13.6,2.1-2.5,4.3-5,3.2-8-1.3-1.5-3.1-2.4-5-2.6-3.2-.3-6.5.2-9.5,1.4-10.9,3.9-20,11.7-25.6,21.8-5.7,10-7.5,21.7-5.1,32.9,1.9,9.2,6.4,17.6,13,24.4,6.1,6.2,14,10.2,22.5,11.5h0ZM41,101c1.8,4.7,7.1,7.1,11.8,5.3,4.7-1.8,7.1-7.1,5.3-11.8-1.8-4.7-7.1-7.1-11.8-5.3,0,0,0,0,0,0-4.7,1.8-7.1,7.1-5.2,11.8ZM90.1,0c-.7,11.1-15.3,18-10.1,29.6,1.5,3.3,4.3,5.8,7.7,6.9,1.4.4,2.8.5,4.2.2.6-.1,1.3-.3,1.8-.6,7.6-3.4,8.5-12.8,6.2-19.9-2.1-6.6-6.6-12.4-9.9-16.2ZM99.8,62.1c-6,1.4-12.2,1.4-18.2.2l4.9,54.3c.2,3.4.9,5.7,5,6.3,1.3,0,2.5-.6,3.4-1.4.8-1,1.3-2.2,1.3-3.6l3.6-55.8ZM94.9,41.2c-2.3,1-6.4,1.5-9.3,0l-3.8,17.9c6.4,1.4,12.6,1.7,18.6,0-2.2-8.7-4-8.8-5.4-17.8h0ZM62.5,81c1.9,4.9,7.2,7.7,12.4,6.4l-1.8-20.6c-5.8-.4-10.8,3.9-11.2,9.7-.1,1.5.1,3.1.7,4.5ZM16.9,81.9c1.8,4.7,7.1,7.1,11.9,5.2,4.7-1.8,7.1-7.1,5.2-11.9-1.8-4.7-7.1-7.1-11.8-5.2-4.7,1.8-7.1,7.1-5.3,11.8,0,0,0,0,0,0h0ZM22.2,54.9c1.8,4.7,7.1,7,11.7,5.2,4.7-1.8,7-7.1,5.2-11.7-1.8-4.7-7.1-7-11.7-5.2-4.7,1.8-7,7.1-5.2,11.8Z"/>
</svg>