<?xml version="1.0" encoding="UTF-8"?>
<svg id="Layer_1" data-name="Layer 1" xmlns="http://www.w3.org/2000/svg" version="1.1" viewBox="0 0 121 106.7">
  <defs>
    <style>
      .cls-1 {
        fill: #fff;
        fill-rule: evenodd;
        stroke-width: 0px;
      }
    </style>
  </defs>
  <path class="cls-1" d="M60.7,35v1.3c2.3-3.5,5-6.2,8.2-8.4,5-3.5,11-5.5,18.2-6.8,1.1-.2,2.2.6,2.4,1.7.2,1.2-.6,2.3-1.7,2.5-6.6,1.2-12.1,3-16.5,6.1-3.6,2.5-6.6,5.9-9,10.6,17.1,1.7,27.2,0,34.6-5.4,7.3-5.4,12.2-14.7,18.6-28.1-1.9.1-3.9.2-5.9.3-13,.6-27.2,1.3-36,9.2-2.3,2-4.5,4.5-6.6,7.3-2.1,2.8-4.2,6-6.2,9.6h0ZM54.3,24c-.7-1-1.5-1.8-2.4-2.4-1.7-1.2-3.9-2-6.4-2.5-1.1-.2-1.9-1.4-1.6-2.5s1.4-1.9,2.5-1.6c3,.7,5.7,1.6,7.9,3.2-.2-.5-.4-1-.6-1.5-1.1-2.7-2.6-5.1-4.8-7.1-2.5-2.2-5.7-2.7-8.7-3h0s-15.5-1-15.5-1l4,8.4c2.8,5.1,6.6,7.9,11.2,9.3,4.1,1.2,8.9,1.3,14.4.9h0ZM56,29.1c-6.5.6-12.4.5-17.5-1-6-1.8-10.8-5.4-14.3-11.9,0,0,0,0,0-.1h0l-5.9-12.4c-.6-1.3,0-2.9,1.2-3.5.4-.2.8-.3,1.3-.2h0l19.8,1.2c.1,0,.2,0,.3,0h0c3.7.5,7.8,1,11.4,4.3,2.8,2.5,4.8,5.6,6.2,9,1.5,3.7,2.2,7.8,2.2,11.7s0,.6-.1.8c1-1.5,2-3,3-4.3,2.4-3.1,4.8-5.8,7.2-7.9,10-8.9,25-9.6,38.6-10.2,3.2-.2,6.2-.3,9.3-.6h0c.4,0,.7,0,1.1.2,1,.5,1.5,1.8,1,2.8-7.5,15.8-12.8,26.6-21.5,33-8.5,6.3-19.9,8.2-39.1,6v17.1c8-11.3,15.9-11.5,28.7-11.8,2.7,0,5.7-.1,9.1-.3h0c.3,0,.7,0,1,.2,1,.5,1.5,1.8,1,2.8-5.2,11-8.6,17.8-14.4,21.6-5.5,3.7-12.8,4.4-25.4,3v28h-4.2v-27.4c-17.3,1.9-27.8.3-35.7-5.3C12.1,68.3,7,58.5.2,44.2c-.5-1.1,0-2.3,1-2.8.3-.2.7-.2,1.1-.2h0c2.8.2,5.7.3,8.6.5,12.6.5,26.9,1.1,35.9,9.1,4.2,3.8,7.2,6.9,9.2,10.3v-31.9h0ZM51.4,75.5c-2.9-3.8-5.9-6.7-9.1-9-4-2.8-8.3-4.6-13-6.1-1.1-.3-1.7-1.6-1.4-2.7.4-1.1,1.5-1.8,2.6-1.4,5.1,1.6,9.8,3.6,14.1,6.7,3.8,2.6,7.3,6,10.6,10.6-.2-3.8-.9-6.7-2.3-9.3-1.7-3.4-4.6-6.5-9-10.4-7.9-7-21.3-7.6-33.3-8.1-1.8,0-3.5-.1-5.1-.2,5.8,11.9,10.4,20.1,17.1,24.9,6.4,4.5,15,6.1,28.7,5h0ZM61.9,68.3c1.6-1.4,3.3-2.6,5.2-3.6,4.4-2.3,9.4-3.8,14-4.6,1.1-.2,2.2.6,2.4,1.7.2,1.2-.6,2.3-1.7,2.5-4.2.8-8.8,2-12.7,4.1-2.9,1.5-5.4,3.5-7.1,6.1,10.7,1.1,16.9.5,21.3-2.4,4.3-2.9,7.3-8.3,11.4-16.7-2,0-3.9.1-5.7.2-12.3.3-19.5.5-27,12.7h0Z"/>
</svg>