<?xml version="1.0" encoding="UTF-8"?>
<svg id="Layer_1" data-name="Layer 1" xmlns="http://www.w3.org/2000/svg" version="1.1" viewBox="0 0 121.2 122.9">
  <defs>
    <style>
      .cls-1 {
        fill: #fff;
        stroke-width: 0px;
      }
    </style>
  </defs>
  <path class="cls-1" d="M114.5,66.4c0,0,.1.2.2.3.3.4.6.8.8,1.3,5.2,8.5,6.4,18.3,4.2,27.2-2.2,9-7.7,17.1-16.2,22.3-6.5,4-13.9,5.7-21,5.2-7.3-.5-14.4-3.2-20.2-7.8,0,0,0,0-.1-.1-5.6,3.9-12.4,6.3-19.5,6.5-.5,0-.8,0-.8,0-9.7,0-18.5-4-24.9-10.5-6.4-6.5-10.3-15.4-10.3-25.3s0-.8,0-1.4c0-.6,0-1,0-1.4,0-.2,0-.5.1-.7-1-2.4-1.6-4.9-1.9-7.6-.1-.2-.2-.3-.3-.5-3.3-6.6-4.8-13.2-4.8-19.5s1.9-13.6,5.3-19.3c3.4-5.6,8.4-10.3,14.6-13.4,2.2-1.1,4.5-2,7-2.7,0-.3.2-.6.4-.9,3.8-5.6,8.9-10.3,14.9-13.5C47.9,1.8,54.5,0,61.5,0s13,1.6,18.6,4.5c5.8,2.9,10.8,7.2,14.6,12.5h0c6.8,1,12.8,4.1,17.4,8.7,5.6,5.5,9,13.2,9,21.7s-2.2,12.9-5.8,18c-.3.4-.6.8-.9,1.1h0ZM34.8,17.8c1.2-.1,2.4-.1,3.7-.1,3,0,5.9.3,8.7,1,2.6.6,5.1,1.5,7.5,2.5,3.8-1.8,8-2.8,12.4-2.8s6.6.6,9.6,1.6c2.1-1.1,4.4-1.9,6.8-2.5,1.3-.3,2.7-.5,4-.7-2.8-3-6.1-5.5-9.8-7.3-4.8-2.4-10.3-3.8-16.1-3.8s-11.8,1.5-16.7,4.2c-3.8,2.1-7.2,4.8-10,8h0ZM6.4,62.5c1.1-3.2,2.7-6.2,4.7-8.8,3.9-5,9.5-8.6,15.9-10.1.1,0,.2,0,.3,0,.7-.9,1.5-1.8,2.3-2.6,3.2-3.2,7.2-5.5,11.7-6.6,1.9-3.7,4.5-6.9,7.6-9.5-1-.3-2-.6-3-.8-2.4-.5-4.9-.8-7.5-.8-6,0-11.4,1.3-16,3.6-5.3,2.6-9.5,6.6-12.4,11.4-2.9,4.8-4.5,10.4-4.5,16.4,0,2.6.3,5.3.9,8h0ZM47.9,33.6c2,0,4,.4,6,.9,1.7.5,3.4,1.1,4.9,1.9.6-.1,1.2-.2,1.8-.3,1-.1,2-.2,3-.2,6.3,0,12.1,2.6,16.2,6.7,4.2,4.2,6.7,9.9,6.7,16.2s0,1.5,0,2.2c.4-.6.8-1.3,1.2-2,1.9-3.4,2.9-7.3,2.9-11.5,0-6.6-2.6-12.5-6.9-16.9-4.3-4.3-10.1-7-16.6-7s-9,1.4-12.6,3.7c-2.6,1.6-4.8,3.8-6.5,6.2h0ZM82.2,72.2c-.5.7-1.1,1.4-1.7,2.1,0,0,0,.1,0,.2,0,5.5-1.6,10.6-4.3,14.8,0,.3,0,.4,0,.5,0,3.4-.6,6.6-1.7,9.7,5.8-.4,11-2.8,14.8-6.7,4.2-4.2,6.7-9.9,6.7-16.2s-.6-6.1-1.8-8.8c-.7-1.7-1.6-3.3-2.7-4.8-2.3,3.7-5.5,6.9-9.2,9.3,0,0,0,0-.1,0h0ZM94,57.7c2.1,2.3,3.8,5,5.1,8,.6,1.5,1.1,3,1.5,4.6,4.1-1.8,7.7-4.7,10.3-8.3,3-4.1,4.7-9.2,4.7-14.7s-2.8-13.2-7.3-17.7-10.8-7.3-17.7-7.3-4,.2-5.9.7c-.5.1-1,.3-1.5.4,1.5,1,2.9,2.2,4.2,3.5,5.2,5.3,8.4,12.5,8.4,20.6,0,3.6-.7,7-1.8,10.2h0ZM12.8,91.1c1.1,6.2,4.1,11.7,8.2,16,5.4,5.5,12.8,8.9,21,8.9h.7c7.3-.2,14.3-3.2,19.5-8,3.5-3.2,6.1-7.1,7.5-11.5-4.7,3.6-10.6,5.8-17,5.8s-8.7-1.1-12.5-2.9c-.9.2-1.9.4-2.9.5-1.2.2-2.5.2-3.7.2-7.9,0-15-3.2-20.2-8.4-.2-.2-.4-.4-.6-.6h0ZM33.7,94.7c-.2-.2-.5-.4-.7-.6-5-5-8.1-11.9-8.1-19.6s0-1.6.1-2.5c0-.5.1-1.1.2-1.6-1.9-3.5-3-7.5-3-11.8s.5-5.7,1.4-8.3c-3.3,1.5-6.1,3.8-8.4,6.7-3.1,4-5,9-5,14.5s2.6,12.3,6.8,16.5c4.2,4.2,10,6.8,16.5,6.8h.1ZM30.3,77c.6,5.2,2.9,9.8,6.4,13.3,4.1,4.1,9.7,6.6,15.9,6.6s11.8-2.5,15.9-6.6c3.1-3.1,5.3-7.1,6.2-11.5-3.3,1.9-7.2,2.9-11.2,2.9s-2.3,0-3.5-.3c-.7,0-1.3-.2-1.9-.4-1.6.8-3.3,1.4-5,1.8-1.9.5-3.9.7-5.9.7-6.5,0-12.5-2.5-16.9-6.6h0ZM52.3,77.7c-4.9-.1-9.4-2.2-12.7-5.4-3.4-3.4-5.4-8-5.4-13.1s2.1-9.8,5.4-13.1,8-5.4,13.1-5.4,2.1,0,3.1.3c-1.1-.5-2.2-1-3.4-1.3-1.6-.5-3.4-.7-5.2-.7-5.5,0-10.4,2.2-14,5.8s-5.8,8.5-5.8,14,2.2,10.4,5.8,13.9,8.5,5.8,14,5.8,3.2-.2,4.6-.5c.1,0,.3,0,.4,0h0ZM60.2,41.5c-.2.2-.5.3-.7.4,2.4.9,4.6,2.4,6.4,4.2,3.4,3.4,5.4,8,5.4,13.1s-1.2,7.4-3.1,10.3c-.2.3-.4.7-.6.9-.5.7-1.1,1.3-1.7,1.9-1.6,1.6-3.6,3-5.7,3.9.2,0,.5,0,.7.1.9.1,1.8.2,2.7.2,4.9,0,9.3-2,12.5-5.2,3.2-3.2,5.2-7.6,5.2-12.5s-2-9.3-5.2-12.5c-3.2-3.2-7.6-5.2-12.5-5.2s-1.6,0-2.3.1c-.3,0-.7,0-1,.1h0ZM101.2,76.1v.5c0,7.8-3.2,14.9-8.3,20-5.1,5.1-12.2,8.3-20,8.3s-.7,0-1-.2c-1.4,2.4-3.2,4.6-5.2,6.6,4.8,3.6,10.4,5.6,16.3,6,6,.4,12.2-1,17.7-4.4,7.1-4.4,11.8-11.2,13.7-18.8,1.8-7.6.8-15.9-3.6-23,0-.1-.2-.2-.2-.4-2.7,2.3-5.9,4.2-9.3,5.5h0ZM61.7,49.4c-2.4-2.2-5.5-3.5-9-3.5s-6.5,1.3-8.8,3.3c0,.2,0,.5,0,.7,0,2.5,1,4.7,2.6,6.3,1.6,1.6,3.8,2.6,6.3,2.6s4.7-1,6.3-2.6c1.6-1.6,2.6-3.8,2.6-6.3,0-.2,0-.4,0-.5h0ZM39.9,55.8c-.3,1.1-.4,2.2-.4,3.4,0,3.7,1.5,7,3.9,9.4,2.4,2.4,5.7,3.9,9.4,3.9s4.5-.6,6.4-1.6c-1.3-.3-2.6-.8-3.7-1.5-2.4-1.3-4.4-3.2-5.8-5.5,0,0,0,0,0-.1-2.6-.6-4.9-2-6.7-3.8-1.2-1.2-2.2-2.6-2.9-4.2h0ZM64.1,66c1.2-2,1.9-4.3,1.9-6.8s-.1-2.1-.4-3.1c-.7,1.5-1.6,2.8-2.8,3.9-1.8,1.8-4,3.1-6.5,3.7.5.4,1,.7,1.5,1,1.5.8,3.3,1.3,5.3,1.3.4,0,.7,0,.9,0h0Z"/>
</svg>